<svg xmlns="http://www.w3.org/2000/svg" data-name="Layer 1" viewBox="0 0 110 110" id="flute"><path fill="#f4d0b5" d="M86.1,41.28,29,98.4A12.29,12.29,0,0,1,11.6,81L68.72,23.9Z"></path><path d="M86.09,41.28,29,98.4a12.25,12.25,0,0,1-12.28,3.06,12.24,12.24,0,0,0,5.08-3.06L65.12,55.06a19.49,19.49,0,0,0,0-27.56h0l3.6-3.6Z" opacity=".1"></path><path d="M20.29,103a13.29,13.29,0,0,1-9.4-22.68L68,23.2a1,1,0,0,1,1.42,0L86.8,40.57a1,1,0,0,1,.3.71,1,1,0,0,1-.3.71L29.68,99.11A13.2,13.2,0,0,1,20.29,103ZM68.72,25.32,12.31,81.73a11.29,11.29,0,0,0,16,16L84.68,41.28Z"></path><path fill="#f76c82" d="M92.63,41.54a4.43,4.43,0,0,1-6.27,0L68.44,23.63a4.43,4.43,0,0,1,6.27-6.27L92.62,35.28A4.42,4.42,0,0,1,92.63,41.54Z"></path><path d="M89.53,43.84h-.08a5.34,5.34,0,0,1-3.8-1.59L67.74,24.33a5.35,5.35,0,0,1-1.59-3.83,5.41,5.41,0,0,1,1.59-3.84,5.48,5.48,0,0,1,3.85-1.59h0a5.34,5.34,0,0,1,3.8,1.59L93.33,34.57a5.44,5.44,0,0,1,0,7.68h0A5.35,5.35,0,0,1,89.53,43.84Zm0-2h0A3.43,3.43,0,0,0,91.92,36L74,18.07a3.37,3.37,0,0,0-2.39-1h0a3.37,3.37,0,0,0-2.4,1,3.43,3.43,0,0,0,0,4.85L87.07,40.84a3.41,3.41,0,0,0,2.4,1Zm3.14-.3h0Z"></path><path fill="#f4d0b5" d="M101.16,20.25,89.75,8.83A2.84,2.84,0,0,0,86,8.6L74.71,17.37,92.63,35.28,101.4,24A2.86,2.86,0,0,0,101.16,20.25Z"></path><path d="M92.63,36.28a1,1,0,0,1-.71-.29L74,18.07a1,1,0,0,1-.29-.76,1,1,0,0,1,.39-.73L85.36,7.81a3.87,3.87,0,0,1,5.1.31l11.41,11.42a3.86,3.86,0,0,1,.32,5.09L93.42,35.9a1,1,0,0,1-.73.38ZM76.22,17.46,92.53,33.78l8.08-10.38a1.86,1.86,0,0,0-.15-2.45L89,9.54a1.85,1.85,0,0,0-2.45-.15Z"></path><path d="M93.21,25.08a1,1,0,0,1-.71-.29l-7.29-7.3a1,1,0,1,1,1.41-1.41l7.3,7.29a1,1,0,0,1,0,1.42A1,1,0,0,1,93.21,25.08Z"></path><path fill="#656d78" d="M72.92,43.32a4.41,4.41,0,1,1,0-6.25A4.42,4.42,0,0,1,72.92,43.32Z"></path><path d="M69.8,45.61A5.41,5.41,0,1,1,73.63,44h0A5.36,5.36,0,0,1,69.8,45.61Zm0-8.82h0a3.41,3.41,0,0,0-2.42,5.82,3.49,3.49,0,0,0,4.82,0h0a3.41,3.41,0,0,0-2.4-5.82Z"></path><path fill="#656d78" d="M60.8,55.43a4.41,4.41,0,1,1,0-6.24A4.4,4.4,0,0,1,60.8,55.43Z"></path><path d="M57.68,57.73a5.42,5.42,0,0,1,0-10.83h0a5.41,5.41,0,0,1,3.81,9.24h0A5.39,5.39,0,0,1,57.68,57.73Zm0-8.83h0a3.42,3.42,0,0,0-2.42,5.82,3.48,3.48,0,0,0,4.83,0,3.41,3.41,0,0,0-2.4-5.82Zm3.1,6.53h0Z"></path><path fill="#656d78" d="M48.69,67.55a4.41,4.41,0,1,1,0-6.24A4.4,4.4,0,0,1,48.69,67.55Z"></path><path d="M45.57,69.84a5.41,5.41,0,0,1,0-10.82h0a5.41,5.41,0,0,1,0,10.82Zm0-8.82A3.41,3.41,0,1,0,48,62,3.4,3.4,0,0,0,45.58,61Z"></path><path fill="#656d78" d="M36.57,79.66a4.41,4.41,0,1,1,0-6.24A4.4,4.4,0,0,1,36.57,79.66Z"></path><path d="M33.45,82a5.41,5.41,0,1,1,0-10.81h0a5.35,5.35,0,0,1,3.82,1.58,5.41,5.41,0,0,1,0,7.65h0A5.38,5.38,0,0,1,33.45,82Zm0-8.81A3.41,3.41,0,0,0,30,76.55,3.37,3.37,0,0,0,31,79a3.42,3.42,0,1,0,2.42-5.82Zm3.11,6.52h0Z"></path><path fill="#656d78" d="M24.46,91.78a4.41,4.41,0,1,1,0-6.24A4.41,4.41,0,0,1,24.46,91.78Z"></path><path d="M21.33,94.08a5.41,5.41,0,0,1-3.82-9.24,5.45,5.45,0,0,1,3.83-1.59h0a5.35,5.35,0,0,1,3.81,1.58,5.42,5.42,0,0,1-3.83,9.25Zm0-8.83a3.43,3.43,0,0,0-3.42,3.42,3.37,3.37,0,0,0,1,2.4,3.48,3.48,0,0,0,4.83,0l.71.71-.71-.71a3.41,3.41,0,0,0,0-4.82A3.36,3.36,0,0,0,21.34,85.25Z"></path></svg>